# xmcd
#
# Track frame offsets:
#	150
#	20542
#	39466
#	54681
#	73131
#	93290
#	114434
#	131973
#	151487
#	171311
#	188925
#	208798
#	228828
#	250133
#	269763
#	284898
#	306133
#
# Disc length: 4349 seconds
#
# Revision: 1
# Processed by: cddbd v1.5.1PL0 Copyright (c) Steve Scherf et al.
# Submitted via: CDex 1.50Beta5
#
DISCID=0710fb11
DTITLE=Various Artist - 冬の恋歌(ソナタ) オリジナルサウンドトラック
DYEAR=1900
DGENRE=Soundtrack
TTITLE0=最初から今まで
TTITLE1=My memory
TTITLE2=初めて
TTITLE3=あなただけが
TTITLE4=My memory
TTITLE5=離せない恋
TTITLE6=始まり
TTITLE7=あなただけが
TTITLE8=My memory
TTITLE9=忘れないで
TTITLE10=記憶の中へ
TTITLE11=恋人
TTITLE12=すみれ
TTITLE13=あなただけが
TTITLE14=初めて
TTITLE15=すみれ
TTITLE16=最初から今まで
EXTD=
EXTT0=
EXTT1=
EXTT2=
EXTT3=
EXTT4=
EXTT5=
EXTT6=
EXTT7=
EXTT8=
EXTT9=
EXTT10=
EXTT11=
EXTT12=
EXTT13=
EXTT14=
EXTT15=
EXTT16=
PLAYORDER=
